<svg width="38" height="38" viewBox="0 0 38 38" fill="none" xmlns="http://www.w3.org/2000/svg">
<path d="M37.688 12.8464H33.6035L28 22H16.5L8 5.5C8 5.5 7.85746 4.98776 7.5 5L0 5V8.5L5 8.5L13.1738 24.3414C13.2666 24.6868 13.4736 24.9906 13.7611 25.2034C14.0486 25.4162 14.3997 25.5253 14.7571 25.5131L30 25.5C30.5 25.5 31 24.5 31 24.5L37.688 12.8464Z" fill="white"/>
<path d="M15.5 32C16.8807 32 18 30.8807 18 29.5C18 28.1193 16.8807 27 15.5 27C14.1193 27 13 28.1193 13 29.5C13 30.8807 14.1193 32 15.5 32Z" fill="white"/>
<path d="M28.5 32C29.8807 32 31 30.8807 31 29.5C31 28.1193 29.8807 27 28.5 27C27.1193 27 26 28.1193 26 29.5C26 30.8807 27.1193 32 28.5 32Z" fill="white"/>
</svg>
