<svg width="16" height="17" viewBox="0 0 16 17" fill="none" xmlns="http://www.w3.org/2000/svg">
<path d="M8 17C7.91626 17.0005 7.83324 16.984 7.75572 16.9514C7.67819 16.9188 7.60768 16.8708 7.54822 16.8101L3.04955 12.227C2.40005 11.5631 1.88458 10.7736 1.53284 9.90387C1.18109 9.03415 1 8.10144 1 7.15942C1 6.2174 1.18109 5.28469 1.53284 4.41497C1.88458 3.54526 2.40005 2.75572 3.04955 2.09182C4.36799 0.751579 6.14666 0 8 0C9.85334 0 11.632 0.751579 12.9505 2.09182C13.6 2.75572 14.1154 3.54526 14.4672 4.41497C14.8189 5.28469 15 6.2174 15 7.15942C15 8.10144 14.8189 9.03415 14.4672 9.90387C14.1154 10.7736 13.6 11.5631 12.9505 12.227L8.45178 16.8101C8.39232 16.8708 8.32181 16.9188 8.24428 16.9514C8.16676 16.984 8.08374 17.0005 8 17ZM8 1.28651C6.48131 1.28267 5.02332 1.89971 3.94674 3.00189C3.41652 3.54406 2.99573 4.18877 2.70859 4.89892C2.42145 5.60906 2.27363 6.37062 2.27363 7.13978C2.27363 7.90893 2.42145 8.6705 2.70859 9.38064C2.99573 10.0908 3.41652 10.7355 3.94674 11.2777L8 15.4221L12.0533 11.2777C12.5835 10.7355 13.0043 10.0908 13.2914 9.38064C13.5786 8.6705 13.7264 7.90893 13.7264 7.13978C13.7264 6.37062 13.5786 5.60906 13.2914 4.89892C13.0043 4.18877 12.5835 3.54406 12.0533 3.00189C10.9767 1.89971 9.51869 1.28267 8 1.28651Z" fill="white"/>
<path d="M8 11C7.20888 11 6.43552 10.7654 5.77772 10.3259C5.11992 9.88635 4.60723 9.26164 4.30448 8.53073C4.00173 7.79983 3.92252 6.99556 4.07686 6.21964C4.2312 5.44372 4.61216 4.73098 5.17157 4.17157C5.73098 3.61216 6.44372 3.2312 7.21964 3.07686C7.99556 2.92252 8.79983 3.00173 9.53073 3.30448C10.2616 3.60723 10.8864 4.11992 11.3259 4.77772C11.7654 5.43552 12 6.20888 12 7C12 8.06087 11.5786 9.07828 10.8284 9.82843C10.0783 10.5786 9.06087 11 8 11ZM8 4.6C7.52533 4.6 7.06131 4.74076 6.66663 5.00447C6.27195 5.26819 5.96434 5.64302 5.78269 6.08156C5.60104 6.5201 5.55351 7.00266 5.64612 7.46822C5.73872 7.93377 5.9673 8.36141 6.30294 8.69706C6.63859 9.0327 7.06623 9.26128 7.53178 9.35389C7.99734 9.44649 8.4799 9.39896 8.91844 9.21731C9.35698 9.03566 9.73181 8.72805 9.99553 8.33337C10.2592 7.93869 10.4 7.47468 10.4 7C10.4 6.36348 10.1471 5.75303 9.69706 5.30294C9.24697 4.85286 8.63652 4.6 8 4.6V4.6Z" fill="white"/>
</svg>
